<svg id="logo-yellow-purple" xmlns="http://www.w3.org/2000/svg" viewBox="0 0 150 50">
<style type="text/css">
	.st0{enable-background:new    ;}
	.st1{fill:#7351A2;}
	.st2{fill:#FFF200;}
</style>
<g class="st0">
	<path class="st1" d="M24.5,31h0.6l1.5,3.5l1.5-3.5h0.1l1.5,3.5l1.5-3.5h0.6l-2.1,4.8h-0.1l-1.5-3.4l-1.5,3.4h-0.1L24.5,31z"/>
	<path class="st1" d="M32.9,29c0.1,0,0.3,0,0.4,0.1c0.1,0.1,0.1,0.2,0.1,0.4c0,0.1,0,0.3-0.1,0.4C33.1,30,33,30,32.9,30
		c-0.1,0-0.3,0-0.4-0.1c-0.1-0.1-0.1-0.2-0.1-0.4c0-0.1,0-0.3,0.1-0.4C32.6,29.1,32.7,29,32.9,29z M32.6,31h0.6v4.8h-0.6V31z"/>
	<path class="st1" d="M35,29.2h0.6V31h1v0.5h-1v4.3H35v-4.3h-0.8V31H35V29.2z"/>
	<path class="st1" d="M37.5,29.1h0.6v2.7c0.2-0.3,0.5-0.6,0.8-0.7c0.3-0.2,0.6-0.2,1-0.2c0.4,0,0.7,0.1,1,0.3
		c0.3,0.2,0.5,0.4,0.6,0.7c0.1,0.3,0.2,0.8,0.2,1.4v2.5h-0.6v-2.3c0-0.6,0-0.9-0.1-1.1c-0.1-0.3-0.2-0.6-0.4-0.7s-0.5-0.2-0.8-0.2
		c-0.4,0-0.7,0.1-1,0.4c-0.3,0.2-0.5,0.6-0.6,0.9c-0.1,0.2-0.1,0.7-0.1,1.3v1.8h-0.6V29.1z"/>
	<path class="st1" d="M51.9,30.4l-0.5,0.5c-0.4-0.4-0.8-0.6-1.2-0.8c-0.4-0.2-0.9-0.3-1.3-0.3c-0.5,0-1,0.1-1.5,0.4
		c-0.5,0.2-0.8,0.6-1.1,1C46.2,31.6,46,32,46,32.5c0,0.5,0.1,1,0.4,1.4c0.3,0.4,0.6,0.8,1.1,1c0.5,0.3,1,0.4,1.5,0.4
		c0.7,0,1.2-0.2,1.7-0.6c0.5-0.4,0.7-0.9,0.8-1.5h-2.1v-0.6h2.8c0,1-0.3,1.8-0.9,2.4c-0.6,0.6-1.4,0.9-2.4,0.9
		c-1.2,0-2.1-0.4-2.8-1.2c-0.5-0.6-0.8-1.4-0.8-2.2c0-0.6,0.2-1.2,0.5-1.7c0.3-0.5,0.7-0.9,1.3-1.2c0.5-0.3,1.1-0.4,1.8-0.4
		c0.5,0,1.1,0.1,1.6,0.3S51.4,29.9,51.9,30.4z"/>
	<path class="st1" d="M53.2,31h0.6v0.7c0.2-0.3,0.4-0.5,0.6-0.6c0.2-0.1,0.4-0.2,0.7-0.2c0.2,0,0.4,0.1,0.5,0.2l-0.3,0.5
		c-0.1-0.1-0.2-0.1-0.3-0.1c-0.2,0-0.4,0.1-0.6,0.3s-0.3,0.4-0.4,0.8c-0.1,0.3-0.1,0.8-0.1,1.7v1.6h-0.6V31z"/>
	<path class="st1" d="M60.9,31v4.8h-0.6V35c-0.3,0.3-0.5,0.6-0.9,0.7c-0.3,0.2-0.7,0.2-1.1,0.2c-0.7,0-1.3-0.2-1.7-0.7
		c-0.5-0.5-0.7-1.1-0.7-1.8c0-0.7,0.2-1.3,0.7-1.8c0.5-0.5,1.1-0.7,1.7-0.7c0.4,0,0.7,0.1,1.1,0.3c0.3,0.2,0.6,0.4,0.8,0.8V31H60.9z
		 M58.4,31.5c-0.3,0-0.7,0.1-1,0.3c-0.3,0.2-0.5,0.4-0.7,0.7c-0.2,0.3-0.3,0.6-0.3,1c0,0.3,0.1,0.7,0.3,1c0.2,0.3,0.4,0.5,0.7,0.7
		c0.3,0.2,0.6,0.3,0.9,0.3c0.3,0,0.7-0.1,1-0.3c0.3-0.2,0.5-0.4,0.7-0.7c0.2-0.3,0.2-0.6,0.2-1c0-0.6-0.2-1-0.5-1.4
		C59.4,31.6,59,31.5,58.4,31.5z"/>
	<path class="st1" d="M66.9,32l-0.5,0.3c-0.4-0.6-1-0.8-1.7-0.8c-0.6,0-1.1,0.2-1.5,0.6c-0.4,0.4-0.6,0.8-0.6,1.4
		c0,0.3,0.1,0.7,0.3,1c0.2,0.3,0.4,0.5,0.7,0.7c0.3,0.2,0.7,0.3,1,0.3c0.7,0,1.3-0.3,1.7-0.8l0.5,0.3c-0.2,0.3-0.5,0.6-0.9,0.8
		c-0.4,0.2-0.8,0.3-1.3,0.3c-0.8,0-1.4-0.2-1.9-0.7c-0.5-0.5-0.7-1.1-0.7-1.8c0-0.5,0.1-0.9,0.4-1.3c0.2-0.4,0.6-0.7,1-0.9
		s0.9-0.3,1.4-0.3c0.3,0,0.6,0,0.9,0.1c0.3,0.1,0.5,0.2,0.8,0.4C66.6,31.5,66.8,31.7,66.9,32z"/>
	<path class="st1" d="M72.2,34.2l0.5,0.3c-0.2,0.3-0.4,0.6-0.6,0.8c-0.2,0.2-0.5,0.4-0.8,0.5c-0.3,0.1-0.6,0.2-0.9,0.2
		c-0.8,0-1.4-0.3-1.8-0.8c-0.4-0.5-0.7-1.1-0.7-1.7c0-0.6,0.2-1.2,0.6-1.6c0.5-0.6,1.1-0.9,1.9-0.9c0.8,0,1.5,0.3,2,0.9
		c0.3,0.4,0.5,1,0.5,1.6h-4.3c0,0.6,0.2,1,0.5,1.4c0.3,0.4,0.8,0.5,1.3,0.5c0.2,0,0.5,0,0.7-0.1s0.4-0.2,0.6-0.3
		C71.8,34.7,72,34.5,72.2,34.2z M72.2,32.9c-0.1-0.3-0.2-0.6-0.4-0.8c-0.2-0.2-0.4-0.4-0.6-0.5c-0.3-0.1-0.5-0.2-0.8-0.2
		c-0.5,0-0.9,0.2-1.2,0.5c-0.2,0.2-0.4,0.6-0.6,1H72.2z"/>
	<path class="st1" d="M76.1,29.3h0.7l2.1,5l2.2-5h0.7L79,35.8h-0.1L76.1,29.3z"/>
	<path class="st1" d="M86.7,31v4.8H86V35c-0.3,0.3-0.5,0.6-0.9,0.7c-0.3,0.2-0.7,0.2-1.1,0.2c-0.7,0-1.3-0.2-1.7-0.7
		c-0.5-0.5-0.7-1.1-0.7-1.8c0-0.7,0.2-1.3,0.7-1.8c0.5-0.5,1.1-0.7,1.7-0.7c0.4,0,0.8,0.1,1.1,0.3c0.3,0.2,0.6,0.4,0.8,0.8V31H86.7z
		 M84.2,31.5c-0.3,0-0.7,0.1-1,0.3c-0.3,0.2-0.5,0.4-0.7,0.7c-0.2,0.3-0.3,0.6-0.3,1c0,0.3,0.1,0.7,0.3,1c0.2,0.3,0.4,0.5,0.7,0.7
		c0.3,0.2,0.6,0.3,0.9,0.3c0.3,0,0.7-0.1,1-0.3c0.3-0.2,0.5-0.4,0.7-0.7c0.2-0.3,0.2-0.6,0.2-1c0-0.6-0.2-1-0.5-1.4
		C85.2,31.6,84.7,31.5,84.2,31.5z"/>
	<path class="st1" d="M88,31h0.6v0.9c0.2-0.3,0.5-0.6,0.8-0.7c0.3-0.2,0.6-0.2,1-0.2c0.4,0,0.7,0.1,1,0.3c0.3,0.2,0.5,0.4,0.6,0.7
		c0.1,0.3,0.2,0.8,0.2,1.4v2.5h-0.6v-2.3c0-0.6,0-0.9-0.1-1.1c-0.1-0.3-0.2-0.6-0.4-0.7c-0.2-0.2-0.5-0.2-0.8-0.2
		c-0.4,0-0.7,0.1-1,0.4c-0.3,0.2-0.5,0.6-0.6,0.9c-0.1,0.2-0.1,0.7-0.1,1.3v1.8H88V31z"/>
	<path class="st1" d="M96.2,29.3h1.3c0.5,0,0.9,0.1,1.2,0.2c0.3,0.1,0.5,0.3,0.7,0.6c0.2,0.3,0.2,0.5,0.2,0.8c0,0.3-0.1,0.5-0.2,0.8
		s-0.3,0.4-0.6,0.6c0.3,0.1,0.6,0.2,0.8,0.4s0.3,0.3,0.4,0.6s0.2,0.5,0.2,0.7c0,0.5-0.2,1-0.6,1.3c-0.4,0.4-0.9,0.5-1.5,0.5h-1.8
		V29.3z M96.8,29.9V32h0.4c0.5,0,0.8,0,1-0.1c0.2-0.1,0.4-0.2,0.5-0.4c0.1-0.2,0.2-0.4,0.2-0.6c0-0.3-0.1-0.5-0.3-0.7
		c-0.2-0.2-0.5-0.3-1-0.3H96.8z M96.8,32.7v2.5h0.8c0.5,0,0.8,0,1-0.1s0.4-0.2,0.5-0.4c0.1-0.2,0.2-0.4,0.2-0.6
		c0-0.3-0.1-0.5-0.3-0.8c-0.2-0.2-0.4-0.4-0.8-0.4c-0.2-0.1-0.6-0.1-1.2-0.1H96.8z"/>
	<path class="st1" d="M105.3,34.2l0.5,0.3c-0.2,0.3-0.4,0.6-0.6,0.8c-0.2,0.2-0.5,0.4-0.8,0.5c-0.3,0.1-0.6,0.2-0.9,0.2
		c-0.8,0-1.4-0.3-1.8-0.8c-0.4-0.5-0.7-1.1-0.7-1.7c0-0.6,0.2-1.2,0.6-1.6c0.5-0.6,1.1-0.9,1.9-0.9c0.8,0,1.5,0.3,2,0.9
		c0.3,0.4,0.5,1,0.5,1.6h-4.3c0,0.6,0.2,1,0.5,1.4c0.3,0.4,0.8,0.5,1.3,0.5c0.2,0,0.5,0,0.7-0.1c0.2-0.1,0.4-0.2,0.6-0.3
		C104.9,34.7,105.1,34.5,105.3,34.2z M105.3,32.9c-0.1-0.3-0.2-0.6-0.4-0.8c-0.2-0.2-0.4-0.4-0.6-0.5c-0.3-0.1-0.5-0.2-0.8-0.2
		c-0.5,0-0.9,0.2-1.2,0.5c-0.2,0.2-0.4,0.6-0.6,1H105.3z"/>
	<path class="st1" d="M106.9,31h0.6v0.7c0.2-0.3,0.4-0.5,0.6-0.6c0.2-0.1,0.4-0.2,0.7-0.2c0.2,0,0.4,0.1,0.5,0.2l-0.3,0.5
		c-0.1-0.1-0.2-0.1-0.3-0.1c-0.2,0-0.4,0.1-0.6,0.3c-0.2,0.2-0.3,0.4-0.4,0.8c-0.1,0.3-0.1,0.8-0.1,1.7v1.6h-0.6V31z"/>
	<path class="st1" d="M109.8,29.1h0.6v3.8l2.2-1.9h0.9l-2.6,2.3l2.8,2.5h-0.9l-2.4-2.2v2.2h-0.6V29.1z"/>
	<path class="st1" d="M114.3,31h0.6v2.2c0,0.5,0,0.9,0.1,1.1c0.1,0.3,0.3,0.5,0.5,0.7c0.2,0.2,0.5,0.3,0.9,0.3
		c0.3,0,0.6-0.1,0.9-0.2s0.4-0.4,0.5-0.7c0.1-0.2,0.1-0.6,0.1-1.2V31h0.6v2.4c0,0.7-0.1,1.2-0.2,1.5s-0.4,0.6-0.7,0.8
		c-0.3,0.2-0.7,0.3-1.2,0.3c-0.5,0-0.9-0.1-1.2-0.3c-0.3-0.2-0.5-0.5-0.7-0.8c-0.2-0.3-0.2-0.8-0.2-1.5V31z"/>
	<path class="st1" d="M119.8,31h0.6v0.8c0.2-0.3,0.4-0.5,0.7-0.7c0.3-0.2,0.6-0.3,1-0.3c0.2,0,0.5,0,0.7,0.1s0.4,0.2,0.5,0.4
		s0.2,0.4,0.3,0.7c0.2-0.4,0.5-0.7,0.8-0.9s0.6-0.3,1-0.3c0.3,0,0.6,0.1,0.9,0.3c0.3,0.2,0.4,0.4,0.6,0.7s0.2,0.7,0.2,1.3v2.6h-0.6
		v-2.6c0-0.5,0-0.9-0.1-1.1c-0.1-0.2-0.2-0.3-0.4-0.5c-0.2-0.1-0.4-0.2-0.6-0.2c-0.3,0-0.6,0.1-0.8,0.3c-0.2,0.2-0.4,0.4-0.5,0.7
		c-0.1,0.3-0.2,0.8-0.2,1.5v1.9h-0.6v-2.5c0-0.6,0-1-0.1-1.2c-0.1-0.2-0.2-0.4-0.4-0.5c-0.2-0.1-0.4-0.2-0.6-0.2
		c-0.3,0-0.6,0.1-0.8,0.3s-0.4,0.4-0.6,0.7c-0.1,0.3-0.2,0.7-0.2,1.3v2h-0.6V31z"/>
</g>
<g>
	<g>
		<g>
			<path class="st2" d="M18.5,9.9c0.4,5.8,0.6,11.5,2.4,17c0.2,0.5,2.2,2,2.2,1c0.1-4.9,2.9-20,10.6-16.4c-0.3-0.5-0.6-1-1-1.5
				c-3.1,2.7-11.3,12.7-7,16.8c5.6,5.3,9.2-8.7,10.6-11.8c-0.7-0.5-1.4-0.9-2.2-1.4c0,3.9-1.3,13.7,4.5,14.5
				c1.4,0.2-0.1-1.7-0.9-1.8c-2-0.3-1.3-9.8-1.3-11.5c0-0.6-1.8-2.2-2.2-1.4c-1,2.3-1.8,4.7-2.8,6.9c-0.5,1.1-3.9,7.7-4.7,4.7
				c-0.6-2.3,2.5-6.4,3.7-8.2c1.3-1.9,2.6-3.9,4.3-5.4c0.5-0.4-0.7-1.4-1-1.5C24.5,5.7,21,20,20.9,26.8c0.7,0.3,1.5,0.7,2.2,1
				c-1.8-5.4-2-11-2.4-16.6C20.7,10.2,18.4,9.1,18.5,9.9L18.5,9.9z"/>
		</g>
	</g>
	<g>
		<g>
			<path class="st2" d="M43.4,10.3c-6.2,1.1-9.2,14-2.5,16.5c6.8,2.6,9.9-11.7,10.9-16c-0.7-0.4-1.5-0.8-2.2-1.2
				c-0.1,5.6-1.5,12.3,1.2,17.5c0.3,0.6,1.2,1.2,1.9,1c1.8-0.5,3-2.8,3.2-4.6c0.1-0.9-2.1-2.1-2.2-1.2c-0.2,1.5-1.3,3.6-2.8,4
				c0.6,0.3,1.3,0.7,1.9,1c-2.5-4.8-1.1-11.4-1-16.6c0-0.8-2-2.2-2.2-1.2c-1.1,4.7-2.5,11-6.1,14.5c-1.4,1.4-3.1,1.5-3.9-0.7
				c-0.5-1.3-0.1-3,0.2-4.3c0.6-2.4,2.3-6.5,5.1-7C46,11.9,44.3,10.1,43.4,10.3L43.4,10.3z"/>
		</g>
	</g>
	<g>
		<g>
			<path class="st2" d="M49.8,5.4c0,0.3,0,0.5,0,0.8c0,0.6,0.6,1.1,1,1.3C51,7.6,52,7.9,52,7.4c0-0.3,0-0.5,0-0.8
				c0-0.6-0.6-1.1-1-1.3C50.7,5.2,49.8,4.8,49.8,5.4L49.8,5.4z"/>
		</g>
	</g>
	<g>
		<g>
			<path class="st2" d="M57,9.6c-4.1-0.2-3.8,8.2-3.6,10.6c0.1,2.1,1.9,9.4,5.6,7.1c4.2-2.6,1.9-14.2-2-16.2c-4.1-2.1-2.6,6.2-1,7.9
				c4.9,5,7.4-4.3,8.1-7.8c-0.7-0.4-1.5-0.8-2.2-1.2c0,3.2,0.1,6.4,0.4,9.6c0.2,2.2,0.1,6.7,2.6,7.9c4.7,2.2,3.2-14.4,3.5-16.7
				c-0.7-0.3-1.5-0.7-2.2-1c0.5,5.4,0.1,13.9,4.3,18c0.9,0.9,2.5,0.6,1.3-0.6c-1.7-1.6-2.1-5.2-2.5-7.4c-0.5-3-0.7-6.1-1-9.2
				c-0.1-0.6-2.1-2-2.2-1c-0.4,2.5-0.1,5.2-0.1,7.8c0,1.7-0.1,3.3-0.3,5c-0.1,0.7-0.1,1.5-0.4,2.2c-0.1,0.3-0.2,0.7-0.4,1
				c-0.4,0.3-0.4,0.4,0.1,0.5c0.5,0.4,0.6,0.3,0.2-0.2C65.1,25.6,65,25.3,65,25c-0.2-0.6-0.2-1.3-0.3-2c-0.2-1.7-0.4-3.4-0.5-5.1
				c-0.1-2.2-0.2-4.4-0.2-6.7c0-0.8-2-2.2-2.2-1.2c-0.4,1.7-0.8,3.4-1.4,5c-0.7,1.7-2.8,5.7-3.9,1.4c-0.2-0.7-0.1-1.7,0-2.4
				c0.2-1.4,0-1.5,0.7-0.5c1.3,2.1,1.9,5.9,1.5,8.2c-0.3,1.8-1.9,5.2-2.7,2c-0.4-1.5-0.4-3.2-0.4-4.7c0-1.8,0-7.9,2.9-7.8
				C59.5,11.5,57.8,9.6,57,9.6L57,9.6z"/>
		</g>
	</g>
	<g>
		<g>
			<path class="st2" d="M13,0.4C3.6-0.9-4.9,21.6,4.4,26.3C9.7,29,18.2,24,16.5,17.7c-1.9-7.5-9.8-4.5-13.1,0.1
				c-0.5,0.7,1,1.6,1.5,1.7c2.1,0.3,3.8-1.7,5.1-3c2.3-2.2,4.6-4.2,7.1-6.3C16.5,9.8,15.7,9.4,15,9c0.9,7.3,0.4,15.4,5.2,21.6
				c0.6,0.7,2.8,1.2,1.7-0.1c-4.5-5.8-3.9-13.8-4.7-20.7c-0.1-0.7-1.5-1.7-2.1-1.2c-1.7,1.5-8.9,9.3-11,9c0.5,0.6,1,1.1,1.5,1.7
				c1.2-1.7,3.2-4.2,5.5-4.3c1.3-0.7,2-0.1,2.2,1.9c1.3,1,1.5,2.1,0.8,3.3c-0.4,1.5-1.7,2.8-3,3.6c-2.4,1.5-6.2,2.4-7.7-0.8
				c-0.7-1.4-0.5-3.4-0.4-4.9c0.5-5,4.4-16.9,11-15.9C15.4,2.5,13.8,0.5,13,0.4L13,0.4z"/>
		</g>
	</g>
	<g>
		<g>
			<path class="st2" d="M76.7,12.5c-0.9-1.6-2.8-2.8-4.6-2.8c-1.8,0-3.1,1-2.6,2.8c0.6,1.8,2.5,3.4,3.8,4.6c1.3,1.3,3.2,2.7,3.5,4.6
				c0.2,1.5-1.1,4.3-2.9,3.4c-1.3-0.6-0.9-1.9-0.7-3.1c0.1-0.9-2.1-2.1-2.2-1.2c-0.4,2.3,0,5.1,2.2,6.4c2.3,1.3,5-0.5,5.7-2.8
				c0.7-2.6-1.4-5-3.1-6.7c-0.9-1-2-1.8-2.9-2.8c-0.4-0.4-1.4-1.4-1.4-2.1c0.1-1.4,2.5-1.9,3.1-0.6C75.1,12.9,77.4,13.8,76.7,12.5
				L76.7,12.5z"/>
		</g>
	</g>
	<g>
		<path class="st2" d="M116.1,8.8c0.8,5.9,1.3,11.8,2.2,17.7c0.1,0.6,2.2,1.9,2.2,1c0.2-5.6,0-14.3,4.7-18.3
			c-0.7-0.5-1.4-0.9-2.2-1.4c-1,6.2,0.9,19.9,9.6,20.6c3.2,0.2,3.6-2.7,3.4-5.3c-0.3-4.1-1.2-11.4-4.2-14.7
			c-4.7-5.2-4.6,6.4-4.4,8.7c0.3,3.2,1,7.9,3.5,10.2c3.6,3.4,5-0.9,5-4.1c-0.7-0.3-1.5-0.7-2.2-1c1.7,6.2,2.7,13.4,1.1,19.7
			c-0.6,2.2-1.7,5.8-2.4,2.1c-0.3-1.6-0.1-3.4,0.1-5c1.2-8.8,6.7-18.1,16.3-19c1.1-0.1-0.6-1.9-1.4-1.8c-11,1.1-19.3,14.6-17.1,25.3
			c0.4,1.8,2.4,5.5,4.9,4.2c2.6-1.4,2.6-9,2.6-11.4c0-4.5-0.6-9-1.8-13.3c-0.1-0.5-2.2-2-2.2-1c0,0.8,0.2,4.8-1.9,3.9
			c-0.7-0.3-1.1-2.8-1.4-3.5c-0.6-2.1-0.9-4.3-0.9-6.4c-0.1-1.9,0.2-3.6,0.5-5.4c0.1-0.5,0.3-1,0.6-1.4c0.4-0.3,0.3-0.4-0.3-0.5
			c0.3,0.4,0.5,0.9,0.7,1.3c0.7,2.8,6.1,16.4,0.7,16.5c-2.4,0.1-4.7-4.3-5.4-6.1c-1.5-3.7-1.6-7.6-1-11.5c0.1-0.8-1.5-1.9-2.2-1.4
			c-4.8,4.1-4.6,13.1-4.8,18.7c0.7,0.3,1.5,0.7,2.2,1c-0.9-5.9-1.3-11.8-2.2-17.7C118.1,8.8,115.9,7.7,116.1,8.8L116.1,8.8z"/>
	</g>
	<g>
		<path class="st2" d="M113,9.1c0.5,5.9,0.9,11.8,1.8,17.6c0.1,0.8,2.4,2,2.2,0.8c-0.9-5.8-1.2-11.8-1.8-17.6
			C115.1,9.1,112.9,7.9,113,9.1L113,9.1z"/>
	</g>
	<g>
		<path class="st2" d="M98.8,4.2c0,0.3,0,0.5,0,0.8c0,0.6,0.6,1.1,1,1.3c0.2,0.1,1.2,0.5,1.2-0.1c0-0.3,0-0.5,0-0.8
			c0-0.6-0.6-1.1-1-1.3C99.7,4,98.8,3.7,98.8,4.2L98.8,4.2z"/>
	</g>
	<g>
		<path class="st2" d="M112.5,4.2c0,0.3,0,0.5,0,0.8c0,0.6,0.6,1.1,1,1.3c0.2,0.1,1.2,0.5,1.2-0.1c0-0.3,0-0.5,0-0.8
			c0-0.6-0.6-1.1-1-1.3C113.5,4,112.5,3.6,112.5,4.2L112.5,4.2z"/>
	</g>
	<g>
		<path class="st2" d="M99.7,9.4c1,5.7,2.1,11.4,3.1,17.1c0.1,0.8,2.4,1.9,2.2,0.8c-1-5.7-2.1-11.4-3.1-17.1
			C101.7,9.4,99.4,8.3,99.7,9.4L99.7,9.4z"/>
	</g>
	<g>
		<path class="st2" d="M88.1,1c3.5,7.8,0.2,18.6-2.5,26.1c-0.3,0.7,1.8,2.1,2.2,1.4c2.3-3.9,7.6-0.4,10.9-0.6c4.3-0.2,3-4.6,2.1-7.5
			c-0.2-0.8-2.5-1.9-2.2-0.8c3.9,12.9-9.1,0.5-13,7.4c0.7,0.5,1.4,0.9,2.2,1.4c2.8-7.9,6-18.8,2.3-27C89.8,0.6,87.5-0.3,88.1,1
			L88.1,1z"/>
	</g>
	<g>
		<path class="st2" d="M102.3,8.5c1.5,6,2.7,12,3.9,18c0.1,0.6,2.1,2,2.2,1c1-6.9,2.6-13.6,4.2-20.4c0.2-0.8-2-2.2-2.2-1.2
			c-1.6,6.8-3.2,13.5-4.2,20.4c0.7,0.3,1.5,0.7,2.2,1c-1.1-6.1-2.4-12-3.9-18C104.3,8.5,102.1,7.4,102.3,8.5L102.3,8.5z"/>
	</g>
</g>
</svg>
